<svg id="Layer_1" xmlns="http://www.w3.org/2000/svg" viewBox="0 0 414 414"><style>.st4{fill:#636466}</style><path class="st4" d="M12.8 211.3c0-20.5 3.1-40.9 9.5-60.4 6.1-18.8 15.1-36.7 26.5-52.9 11.3-16 25-30.3 40.6-42.3 15.6-12.1 33-21.8 51.5-28.7 19.1-7.2 39.3-11.3 59.7-12.2 20.6-.9 41.4 1.3 61.3 6.7 18.8 5.1 37.5 13.5 53.5 23.8 8.2 5.3 16.1 11.3 23.4 17.7.5.4.9.8 1.4 1.2-.7-.6.3.3.5.4 1 .9 1.9 1.8 2.8 2.7 1.8 1.7 3.6 3.5 5.4 5.3 1.7 1.7 3.4 3.5 5 5.3l2.4 2.7c.3.4.7.8 1 1.2-.9-1 .3.4.6.7 3.2 3.8 6.2 7.7 9.1 11.7.7.9 1.3 1.8 2 2.8l.6.9s-.7-1.1-.3-.4c.4.6.8 1.2 1.2 1.7 1.4 2.1 2.7 4.2 4 6.4 1.3 2.1 2.5 4.2 3.7 6.3.3.5.5.9.8 1.4.2.3.3.6.5.9 0 0-.6-1.1-.2-.4.6 1.2 1.2 2.3 1.8 3.5 2.3 4.5 4.3 9 6.3 13.6.1.3.8 2 .3.7l.6 1.5c.5 1.2.9 2.5 1.4 3.7.9 2.3 1.7 4.7 2.4 7 .8 2.5 1.5 4.9 2.2 7.4.8 2.9 1 3.6 1.7 6.4 2.3 9.7 4 20 4.7 29.7 1.6 20.6 0 41.5-4.9 61.6-4.7 19.3-12.4 37.9-22.7 55-10.1 16.8-22.8 32.1-37.4 45.1-14.7 13.1-31.3 24-49.1 32.3-18.3 8.5-37.9 14.1-58 16.5-20.6 2.5-41.6 1.8-62-2.1-19.6-3.8-38.6-10.6-56.1-20.2-8.6-4.7-16.3-9.7-24.2-15.7-3.9-3-7.8-6.1-11.5-9.4-.2-.2-.4-.3-.6-.5 0 0-.7-.6-.2-.2.5.4-.3-.3-.4-.4-.2-.2-.4-.4-.6-.5-1-.9-1.9-1.8-2.8-2.7-1.8-1.7-3.5-3.4-5.2-5.1-1.8-1.8-3.5-3.6-5.1-5.5-.8-.8-1.5-1.7-2.2-2.5-.3-.3-1.3-1.5-.5-.5-.4-.5-.9-1.1-1.3-1.6-3.1-3.7-6.1-7.6-8.9-11.5l-2.1-3c-.2-.3-.7-1.1.1.2-.1-.2-.3-.4-.4-.6-.4-.6-.8-1.2-1.2-1.7-1.3-2-2.6-4.1-3.9-6.2-1.3-2.2-2.6-4.4-3.8-6.6-.3-.5-.5-.9-.8-1.4-.2-.3-.6-1.2.1.2-.1-.2-.2-.5-.4-.7-.6-1.2-1.2-2.3-1.8-3.5-2.2-4.4-4.2-8.9-6.1-13.4-.1-.3-.3-.7-.4-1 0 .1.4 1 .1.3-.2-.6-.5-1.1-.7-1.7-.5-1.2-.9-2.5-1.4-3.7-.8-2.3-1.7-4.7-2.4-7-.8-2.4-1.5-4.8-2.2-7.1-.2-.6-.3-1.2-.5-1.8-.1-.4-.4-1.6-.4-1.4-.1-.4-.6-2.5-.9-3.5-1.2-4.9-2.1-9.9-2.9-14.8-1.4-10-2.2-19.6-2.2-29.7 0-3.1-1.9-6.3-4-8.4-1-1-4.3-3.3-4.3-.2 0 21.5 3.4 42.9 10 63.4 6.6 20.4 16.4 39.8 28.7 57.3 11.9 17 26.4 32.3 42.8 45 16.1 12.5 34 22.7 53.1 29.9 19.6 7.4 40.3 11.7 61.2 12.7 21.2 1 42.4-1.4 62.8-7 19.6-5.4 38.3-13.8 55.3-24.9 16.9-11 32-24.5 44.9-40 12.9-15.6 23.5-33 31.2-51.7 7.9-19.3 12.7-39.8 14.4-60.6 1.7-21.3 0-42.9-5.1-63.7-5.1-20.9-13.3-40.9-24.3-59.3-10.7-17.9-24.1-34.3-39.6-48.4-15.3-13.8-32.6-25.5-51.3-34.2-18.8-8.7-39-14.5-59.5-17.1-21-2.6-42.5-1.9-63.3 2.2-20.1 4-39.6 10.9-57.6 20.8C90.4 37 74.3 49.4 60.3 64c-13.9 14.5-25.8 31.1-34.8 49.2C16.2 131.7 10 151.6 6.8 172c-1.6 10.2-2.4 20.5-2.4 30.8 0 3.1 1.9 6.3 4 8.4 1.1.9 4.4 3.2 4.4.1z"/><path class="st4" d="M135.3 307l-19.2-24c-5.9-7.3-9-16.5-9.1-25.9v-11.7-36.7-1.2c0-1.7.1-2.6.8-4.3.5-1.4.6-1.5 1.4-2.7.3-.4.7-.9 1-1.3.7-.8-.5.4.3-.3.3-.2.5-.4.7-.6.3-.2.5-.4.8-.6.6-.4.1-.1 0 0l1.8-.9c.2-.1.4-.2.6-.2-1 .4.1 0 .2 0 .3-.1.5-.1.8-.2 1.2-.2-.6 0 .3-.1.6 0 1.2-.1 1.7-.1h.2c.3 0 .6.1.8.1.2 0 1 .2.1 0 .3.1.6.2 1 .3.2.1.4.1.6.2.2.1 1.4.7.6.2.5.3.9.5 1.4.9.3.2.5.4.8.6-.5-.4-.1-.1 0 0l1.4 1.4c.1.2.3.3.4.5.1.2.3.4.4.5-.2-.3-.2-.3.1.1 1.5 2.6 1.8 4.6 1.8 7.5v35.2c0 2.1 2.8 3.1 4.6 3 1.9-.1 4.3-1.1 4.3-3.4v-33.4c0-1.8.1-3.7-.3-5.5-1.1-5.8-4.9-10.4-10.3-12.9-5.5-2.6-12.5-2.3-17.8.7-5.2 2.9-8.7 7.8-9.3 13.7-.4 3.8-.1 7.8-.1 11.7V255.7c0 8.6 1.8 17 6.1 24.5 3 5.2 7.2 9.8 10.9 14.5 3.9 4.9 7.9 9.8 11.8 14.8.2.3.5.6.7.9 2.6 3.2 10.8.5 7.7-3.4z"/><path class="st4" d="M178.9 309.6V286c0-3.6.1-7.2-.2-10.7-.6-8.5-3.7-16.4-8.4-23.5-2.4-3.5-4.7-7.1-7.1-10.6-2.3-3.5-4.6-7.7-8-10.3-6.7-5.1-16.8-5.2-22.9 1.1-5.1 5.3-6.8 13.9-3 20.4 4 7 8.3 13.9 12.5 20.8.1.2.3.4.4.7 1.1 1.8 3.2 3.7 5.4 2.7 1.9-.8 2.9-3.4 1.8-5.3-3.9-6.4-7.7-12.9-11.6-19.3l-1.5-2.4c-.1-.2-.2-.4-.3-.7-.1-.2-.5-1.6-.3-.6l-.3-1.2c0-.2-.1-.3-.1-.5s-.1-1.2-.1-.3c0-.8 0-1.6.1-2.4 0-.2.2-.7 0 0 0-.2.1-.3.1-.5.1-.5.3-1 .5-1.5.1-.2.5-1.1.3-.8-.2.3.4-.6.5-.7.2-.4.5-.8.8-1.1.1-.1.2-.3.3-.4.3-.3-.4.3.1-.2.6-.6 1.2-1.1 1.9-1.6.2-.1 1.3-.7.6-.4.4-.2.8-.4 1.3-.6.4-.2.9-.3 1.3-.4.2 0 .3-.1.5-.1.6-.1-.6 0 0 0 .8 0 1.6-.1 2.5-.1.7 0 .1 0 0 0 .2 0 .4.1.7.1.4.1.8.1 1.1.2.3.1 1.1.4.4.1.5.2.9.4 1.4.6.3.2.7.4 1 .6-.8-.5.2.1.4.4.3.2.6.5.9.8.4.3-.3-.2-.2-.2 0 0 .5.6.6.6.5.6.9 1.3 1.3 1.9.9 1.3 1.8 2.6 2.6 4 2.5 3.7 4.9 7.4 7.4 11.1.2.4.5.7.7 1.1.3.4.5.8.7 1.2.1.1.4.8.1.1l.3.6c.3.6.6 1.1.9 1.7 2.1 4.1 3.1 7.1 3.8 11.6.4 2.4.5 3.6.5 5.8V308c0 2.2 1.5 4.6 3.8 5 2.4.2 4.5-1.1 4.5-3.4zm100.8-.7c6.5-8.1 12.9-16.1 19.4-24.2 6.5-8.2 10.1-18.4 10.1-28.9v-13.1-36c0-3.4-.9-6.8-2.9-9.6-3.2-4.4-8.5-7-14-6.9-10.5.3-20.2 8.4-20.3 19.2V245c0 3.5 8.2.4 8.2-2.7v-32.5-4c0-1.2.2-2.2.5-3.3.4-1.3.7-2 1.3-2.8.3-.5.6-.9 1-1.3-.6.7.2-.2.2-.2l.6-.6c.4-.5-.8.5 0 0 .3-.2.5-.4.8-.6.7-.5-.1 0-.2.1.2-.2.9-.6 1.2-.6-.9.1-.4.2 0 0 .3-.1.5-.2.8-.3 1-.3-.8.1.3-.1.2 0 .4-.1.7-.1.1 0 1.2-.1.4-.1h1.8c.2 0 .5 0 .7.1h.2c2.4.5 4.2 1.4 6.1 3 2.8 2.5 4.4 6.1 4.4 9.9.1 11 0 22 0 33v15.4c0 8.4-1.9 16.6-6.6 23.7-2.9 4.3-6.4 8.3-9.7 12.4-3.8 4.7-7.6 9.5-11.4 14.2-.2.3-.5.6-.7.9-1.2 1.5-.2 2.9 1.5 3 2.2.3 4.3-1 5.6-2.6z"/><path class="st4" d="M237.1 308.2v-22.4-7.8c0-4.3.6-8.6 1.9-12.7.7-2.1 1.5-4.1 2.5-6 .5-1 1-1.9 1.6-2.9.3-.4.5-.9.8-1.3.4-.6-.3.4-.1.1 2-3 4.1-6.1 6.1-9.1 1.2-1.8 2.4-3.7 3.7-5.5.3-.5.7-1 1-1.5.1-.1.1-.2.2-.3.2-.3.3-.5.5-.8 0-.1.4-.5.1-.1.1-.2.3-.4.4-.6.3-.4.6-.7.9-1l.1-.1c-.3.3.2-.1.3-.2.3-.2.6-.5.9-.7-.8.6.4-.2.6-.3.1-.1.3-.2.4-.2-.5 0-.7.2-.2.1.4-.1.8-.2 1.1-.4.5-.3-.8.1-.2 0 .2 0 .3-.1.5-.1s.4-.1.7-.1c1-.1-.5-.1.1 0h1.2c.2 0 .4 0 .7.1-.2 0-.7-.1 0 0 .4.1.8.2 1.1.3.2 0 .3.1.5.1 1 .3-.5-.3.5.2 1.6.8 2.8 1.5 3.9 2.7 3.5 3.8 4.1 9.4 1.5 13.8l-12.3 20.4c-.1.2-.2.4-.4.6-1.1 1.8 1.2 3 2.7 3.1 2.2 0 4.3-.9 5.5-2.8 4-6.7 8-13.3 12-20 2.7-4.6 3.7-10 1.3-15-3.8-8.1-13.2-11-21.4-8.4-4.3 1.3-8.1 4.1-10.5 7.9-.3.5.4-.6.1-.1-.1.2-.3.4-.4.6-.4.7-.9 1.3-1.3 2-2.6 4-5.3 7.9-7.9 11.9-1 1.5-2 3-2.9 4.5-2.4 4-4.1 8.4-5.2 12.9-1.1 4.6-1.2 9.2-1.2 13.8v26.5c0 2 2.3 2.5 4 2.2 1.5-.2 4.6-1.4 4.6-3.4zM254 157.4c5-11.9 6-27.5-2.2-38.3-7.3-9.7-20.4-12.1-31.5-8.3-3.5 1.2-6.9 3.2-9.7 5.7-1.3 1.2-2.5 2.6-3.5 4-.5.7-.9 1.4-1.3 2.1-.2.4-.4.7-.6 1.1-.1.2-.2.3-.2.5-.1.1-.1.2-.1.3-.2.4 0 .3.5-.4.7-.3 1.4-.5 2.2-.8h-.3c1.3 0 2.6-.1 3.9-.1 2.3.3 1.5 1.1 1.3.3 0-.2-.2-.5-.3-.7-.2-.4-.4-.8-.6-1.1-.5-.8-1-1.7-1.5-2.4-1.1-1.5-2.4-2.9-3.8-4.2-2.8-2.5-6.2-4.3-9.8-5.3-7.5-2.1-15.7-1.4-22.6 2.3-13.7 7.5-16.3 24.9-12.6 38.8 1.8 6.7 5.1 13 8.8 18.9 4.3 6.7 9.5 13 15.1 18.6 3.1 3.1 6.4 6 9.8 8.8 1.6 1.3 3.3 2.6 5 3.8 2.3 1.6 4.4 2.8 7.3 3 3.4.2 6.4-.8 9-2.7 1.4-1 2.7-2 4.1-3.1 2.9-2.4 5.7-4.9 8.4-7.4 5-4.8 9.9-9.9 14.2-15.3 1.5-1.9 3-3.8 4.3-5.9 2-3.4 3.7-7 5.6-10.5.4-.3.8-1 1.1-1.7 1-1.9-2.6-2.5-3.7-2.5-1.8 0-5 .2-6 2.1-2.1 3.9-4.1 7.8-6.2 11.7-.6 1.2-1.4 2.3-2.1 3.4-.5.7-1 1.3-1.5 2 .1-.1.3-.4 0 0-.2.2-.3.4-.5.6-.3.4-.6.7-.9 1.1-6.1 7.4-13 14.3-20.4 20.4-.9.7-1.8 1.5-2.8 2.2-.4.3-.9.7-1.4 1-.2.1-.4.3-.5.4-.3.2-.4.3-.1 0-.1.1-.3.2-.4.3l-.1.1c.5-.2 1.1-.4 1.7-.4.5 0 .9 0 1.4.1.1 0 .2.1.3.1l.1.1c-.2-.2-.5-.3-.7-.5-.2-.2-.5-.3-.7-.5-1.3-.9-2.5-1.8-3.8-2.7-4.4-3.3-8.5-7-12.4-10.9-6.5-6.7-12.3-14.2-16.8-22.4-5.4-9.7-8.6-21-6.1-32.1.5-2.3 1.3-4.5 2.3-6.6.4-.9.9-1.7 1.4-2.6.6-1 1.1-1.6 1.6-2.2.6-.6 1.1-1.2 1.8-1.8.3-.3.7-.6 1-.9.2-.2.4-.3.6-.5.2-.1.9-.6.1-.1.7-.5 1.5-.9 2.3-1.3.2-.1 1.3-.7.7-.3-.6.4.1 0 .2-.1.2-.1.5-.2.7-.3.4-.1.8-.2 1.2-.4-1.4.5-.1 0 .3 0 .4-.1.9-.1 1.2-.2 0 0-1.3.1-.6.1.3 0 .6 0 .9-.1.8-.1-1.3 0-.1 0h.7c.3 0 .7 0 1.1.1-.1 0-1-.2-.1 0 .6.1 1.2.2 1.7.3 1.1.2-.5-.2.2 0 .4.1.8.2 1.2.4 2.1.7 3.6 1.5 5.6 3.1 1.7 1.3 3.2 3 4.5 4.9.7 1 1.2 2.1 1.7 3.2.9 2 2.8 2.4 4.8 2.6 2.3.2 5.7-.5 6.9-2.7.7-1.1 1.1-2.4 1.9-3.5 1.2-1.9 2.8-3.5 4.6-4.9.7-.5 1.2-.9 2.3-1.5.3-.1.5-.3.8-.4 0 0 1-.5.5-.2-.6.2.5-.2.5-.2.3-.1.7-.2 1-.4 0 0 1.2-.4.4-.1-.7.2.4-.1.4-.1.2-.1.5-.1.7-.1.4-.1 1.3 0 .1 0 .6 0 1.2-.1 1.8-.2.4 0 .6-.2-.2 0 .3-.1.8 0 1.1 0 1 0-.2-.1-.2 0 0 0 .4.1.5.1.4.1.8.1 1.2.2.2 0 .4.1.6.1.6.1-1-.3-.2 0 .5.2 1 .3 1.5.5.4.1.7.3 1.1.4l.6.3c-.7-.3-.3-.1-.1-.1.9.5 1.7.9 2.5 1.5.7.5 1.4 1 2 1.6.4.3-.5-.5.2.2l.5.5c.4.4.7.8 1.1 1.2 6.5 7.7 7.5 18.8 5.5 28.3-.6 2.9-1.6 5.8-2.7 8.6-1.3 2.7 8.5 2.9 9.7 0z"/></svg>