<svg xmlns="http://www.w3.org/2000/svg" version="1.1" xmlns:xlink="http://www.w3.org/1999/xlink" xmlns:svgjs="http://svgjs.com/svgjs" viewBox="0 0 24 24" height="24" width="24"><g transform="matrix(1,0,0,1,0,0)"><path d="M19.5,2h-15C2.016,2.003,0.003,4.016,0,6.5v11c0.003,2.484,2.016,4.497,4.5,4.5h15c2.484-0.003,4.497-2.016,4.5-4.5v-11 C23.997,4.016,21.984,2.003,19.5,2z M15.935,13.342l-5.764,2.882c-0.741,0.371-1.642,0.07-2.013-0.671 C8.054,15.345,8,15.115,8,14.882V9.118c0-0.828,0.671-1.5,1.5-1.5c0.233,0,0.463,0.054,0.671,0.158l5.764,2.882 c0.759,0.333,1.118,1.186,0.785,1.945C16.569,12.947,16.293,13.222,15.935,13.342z" stroke="none" fill="#ffffff" stroke-width="0" stroke-linecap="round" stroke-linejoin="round"></path></g></svg>