<svg id="Layer_1" xmlns="http://www.w3.org/2000/svg" viewBox="0 0 414 414"><style>.st4{fill:#636466}</style><path class="st4" d="M12.8 211.3c0-20.5 3.1-40.9 9.5-60.4 6.1-18.8 15.1-36.7 26.5-52.9 11.3-16 25-30.3 40.6-42.3 15.6-12.1 33-21.8 51.5-28.7 19.1-7.2 39.3-11.3 59.7-12.2 20.6-.9 41.4 1.3 61.3 6.7 18.8 5.1 37.5 13.5 53.5 23.8 8.2 5.3 16.1 11.3 23.4 17.7.5.4.9.8 1.4 1.2-.7-.6.3.3.5.4 1 .9 1.9 1.8 2.8 2.7 1.8 1.7 3.6 3.5 5.4 5.3 1.7 1.7 3.4 3.5 5 5.3l2.4 2.7c.3.4.7.8 1 1.2-.9-1 .3.4.6.7 3.2 3.8 6.2 7.7 9.1 11.7.7.9 1.3 1.8 2 2.8l.6.9s-.7-1.1-.3-.4c.4.6.8 1.2 1.2 1.7 1.4 2.1 2.7 4.2 4 6.4 1.3 2.1 2.5 4.2 3.7 6.3.3.5.5.9.8 1.4.2.3.3.6.5.9 0 0-.6-1.1-.2-.4.6 1.2 1.2 2.3 1.8 3.5 2.3 4.5 4.3 9 6.3 13.6.1.3.8 2 .3.7l.6 1.5c.5 1.2.9 2.5 1.4 3.7.9 2.3 1.7 4.7 2.4 7 .8 2.5 1.5 4.9 2.2 7.4.8 2.9 1 3.6 1.7 6.4 2.3 9.7 4 20 4.7 29.7 1.6 20.6 0 41.5-4.9 61.6-4.7 19.3-12.4 37.9-22.7 55-10.1 16.8-22.8 32.1-37.4 45.1-14.7 13.1-31.3 24-49.1 32.3-18.3 8.5-37.9 14.1-58 16.5-20.6 2.5-41.6 1.8-62-2.1-19.6-3.8-38.6-10.6-56.1-20.2-8.6-4.7-16.3-9.7-24.2-15.7-3.9-3-7.8-6.1-11.5-9.4-.2-.2-.4-.3-.6-.5 0 0-.7-.6-.2-.2.5.4-.3-.3-.4-.4-.2-.2-.4-.4-.6-.5-1-.9-1.9-1.8-2.8-2.7-1.8-1.7-3.5-3.4-5.2-5.1-1.8-1.8-3.5-3.6-5.1-5.5-.8-.8-1.5-1.7-2.2-2.5-.3-.3-1.3-1.5-.5-.5-.4-.5-.9-1.1-1.3-1.6-3.1-3.7-6.1-7.6-8.9-11.5l-2.1-3c-.2-.3-.7-1.1.1.2-.1-.2-.3-.4-.4-.6-.4-.6-.8-1.2-1.2-1.7-1.3-2-2.6-4.1-3.9-6.2-1.3-2.2-2.6-4.4-3.8-6.6-.3-.5-.5-.9-.8-1.4-.2-.3-.6-1.2.1.2-.1-.2-.2-.5-.4-.7-.6-1.2-1.2-2.3-1.8-3.5-2.2-4.4-4.2-8.9-6.1-13.4-.1-.3-.3-.7-.4-1 0 .1.4 1 .1.3-.2-.6-.5-1.1-.7-1.7-.5-1.2-.9-2.5-1.4-3.7-.8-2.3-1.7-4.7-2.4-7-.8-2.4-1.5-4.8-2.2-7.1-.2-.6-.3-1.2-.5-1.8-.1-.4-.4-1.6-.4-1.4-.1-.4-.6-2.5-.9-3.5-1.2-4.9-2.1-9.9-2.9-14.8-1.4-10-2.2-19.6-2.2-29.7 0-3.1-1.9-6.3-4-8.4-1-1-4.3-3.3-4.3-.2 0 21.5 3.4 42.9 10 63.4 6.6 20.4 16.4 39.8 28.7 57.3 11.9 17 26.4 32.3 42.8 45 16.1 12.5 34 22.7 53.1 29.9 19.6 7.4 40.3 11.7 61.2 12.7 21.2 1 42.4-1.4 62.8-7 19.6-5.4 38.3-13.8 55.3-24.9 16.9-11 32-24.5 44.9-40 12.9-15.6 23.5-33 31.2-51.7 7.9-19.3 12.7-39.8 14.4-60.6 1.7-21.3 0-42.9-5.1-63.7-5.1-20.9-13.3-40.9-24.3-59.3-10.7-17.9-24.1-34.3-39.6-48.4-15.3-13.8-32.6-25.5-51.3-34.2-18.8-8.7-39-14.5-59.5-17.1-21-2.6-42.5-1.9-63.3 2.2-20.1 4-39.6 10.9-57.6 20.8C90.4 37 74.3 49.4 60.3 64c-13.9 14.5-25.8 31.1-34.8 49.2C16.2 131.7 10 151.6 6.8 172c-1.6 10.2-2.4 20.5-2.4 30.8 0 3.1 1.9 6.3 4 8.4 1.1.9 4.4 3.2 4.4.1z"/><path class="st4" d="M193.9 209.9l1.6-1.6c41-.9 64.6-19.9 64.6-49.7v-.6c0-25.5-19.9-46.9-51.6-46.9-24.8 0-43.8 12.1-59.9 32l-11.2-9.3c17.7-22 38.8-37 71.7-37 41 0 67.4 27.3 67.4 60.6v.6c0 38.5-29.8 59-65.8 63.4l-2.8 38.8H198l-4.1-50.3zm-1.2 80.8h20.5v26.4h-20.5v-26.4z"/><path class="st4" d="M196.3 209.3l1.6-1.6c-1.5.5-2.9.9-4.4 1.4 9.3-.2 18.6-1.4 27.5-3.9 7.7-2.1 15.2-5.1 21.8-9.6 5.5-3.7 10.2-8.5 13.6-14.3 3.4-5.8 5.3-12.2 5.9-18.9 1.3-14.9-3.9-29.7-15.3-39.7-13.2-11.5-31.7-14.3-48.5-11.5-9.2 1.5-18.3 4.7-26.4 9.4-7.9 4.6-14.9 10.7-21.1 17.4-1.6 1.8-3.2 3.7-4.8 5.6 1.6-.4 3.2-.9 4.7-1.3-2-1.7-4-3.3-6-5-1.3-1.1-2.6-2.2-3.9-3.2-.3-.3-.8-.6-1.1-.9 0 0-.2-.1-.2-.2 0-.2.8-1 1-1.3 6.6-8.1 14.1-15.6 22.8-21.5 8.4-5.7 17.8-9.7 27.9-11.4 11.4-1.9 23.4-1.7 34.6 1 18.9 4.5 35.5 16.8 43.3 34.9 7.5 17.4 6.3 39.3-3.7 55.6-9.9 16-27.4 25.6-45.5 29.1-2.5.5-5 .9-7.5 1.2-.9.1-1.9.4-2.7.7-.3.1-1.6.4-1.7.8-.8 11.3-1.6 22.7-2.4 34l-.3 4.8c1.5-.5 2.9-1 4.4-1.5H200c.1 0 .2 0 .4.1-.5-5.6-.9-11.3-1.4-16.9-.7-9.1-1.5-18.1-2.2-27.2-.2-2.1-.3-4.1-.5-6.2 0-.1-4.9.6-4.8 1.4.5 5.6.9 11.3 1.4 16.9.7 9.1 1.5 18.1 2.2 27.2.2 2.1.3 4.1.5 6.2.1.1.2.1.4.1h9.9c.9 0 1.9-.4 2.7-.7.3-.1 1.6-.4 1.7-.8.8-11.3 1.6-22.7 2.4-34l.3-4.8c-1.5.5-2.9 1-4.4 1.5 18.8-2.3 38.5-8.6 52.4-21.8 6.4-6.1 11.4-13.6 14.4-21.9 3.1-8.8 4.1-18.4 3.2-27.7-1.7-17.9-11.7-34-26.8-43.6-17.7-11.3-40.1-13.2-60.3-9.1-10.3 2.1-20.3 5.8-29.3 11.4-8.4 5.2-15.8 11.9-22.3 19.2-1.7 1.9-3.3 3.8-4.9 5.8 0 0 0 .1-.1.1 3.7 3.1 7.5 6.2 11.2 9.3.4.3 1.8-.2 2.2-.3.7-.2 2.1-.4 2.6-1 10.9-13.3 25-25.8 42.3-29.3 16.4-3.3 34.9-.5 48 10.3 5.6 4.7 10.1 10.7 12.9 17.4 2.8 6.7 3.8 13.8 3.4 21-.3 6.6-1.9 13.1-4.9 18.9-3 5.7-7.4 10.6-12.5 14.5-5.5 4.1-11.9 7.1-18.4 8.9-4 1.1-8.2 1.9-12.3 2.4-2.3.3-4.5.5-6.8.6-2.7.2-5.3 0-7.9.9-1.4.5-2.1 1.2-3.2 2.3-.3.3 1.7-.1 1.8-.1.9-.2 2.3-.4 3-1.1zm-5.6 82.2h20.5c-.1 0-.2 0-.4-.1V317.8c1.5-.5 2.9-1 4.4-1.5h-20.5c.1 0 .2 0 .4.1v-23.1-3.3c0-.3-2.3.4-2.5.4-.3.1-2.3.5-2.3 1V317.8c.1.1.2.1.4.1h20.5c.6 0 4.4-.8 4.4-1.5v-23.1-3.3c-.1-.1-.2-.1-.4-.1h-20.5c-1.1 0-2.3.5-3.3.9-.3.1-1.7.7-.7.7z"/></svg>