<svg id="Layer_1" xmlns="http://www.w3.org/2000/svg" viewBox="0 0 414 414"><style>.st4{fill:#636466}</style><path class="st4" d="M55.2 41.2l-1.5.3c-1.2.2-2.3.5-3.5.7-1.4.3-2.8.6-4.2.8-1.2.2-2.4.5-3.7.7-.6.1-1.2.2-1.8.4-.1 0-.4.1-.4.3 0 .2.2.3.4.4.6.3 1.3.4 1.9.3l1.5-.3c1.2-.2 2.3-.5 3.5-.7 1.4-.3 2.8-.6 4.2-.8 1.2-.2 2.4-.5 3.7-.7.6-.1 1.2-.2 1.8-.4.1 0 .4-.1.4-.3 0-.2-.2-.3-.4-.4-.5-.3-1.2-.5-1.9-.3zm-11.9-14c-1.1.5-2.2.9-3.3 1.4l-3.6 1.5c-.1 0-.2.1-.2.1h-.1c-.1 0 .2-.1 0 0-.1 0-.2 0-.3.1h-.1c-.1 0 .2 0 0 0H35h-.1-.1-.1c-.1 0-.1 0-.2-.1-.2-.1-.4-.1-.6-.2-.4-.2-.7-.4-1-.6l.1.1c-.8-.7-1.4-1.6-1.6-2.6v.1c-.1-.5-.1-.9-.1-1.4 0-.2 0-.4.1-.6v-.2c0 .2 0 0 0 0 0-.1.1-.3.1-.4l.3-.6c.1-.2-.1.2 0 0l.1-.1c.1-.1.1-.2.2-.3.1-.2-.2.2 0 0l.1-.1.1-.1c.1-.1.2-.1.2-.2.2-.2-.3.2-.1.1.1 0 .1-.1.2-.1.2-.1-.3.2-.1.1h.1c.1-.1.3-.1.4-.2.4-.2.9-.4 1.3-.7 1.2-.6 2.3-1.2 3.5-1.7l1.2-.6c.1-.1.2-.1.3-.2h.1c.1 0 .1-.1.2-.1 0 0 .1 0 .1-.1-.2.1-.2.1-.1 0 0 0 .1 0 .1-.1.1 0 .3-.2.4-.1H40 40.3c.1 0 .2 0 .4-.1H41.9c.1 0 .3 0 .4.1h.1c.1 0 .1 0 .2.1.3.1.5.2.8.3.7.3 1.3.5 2 .8 2.4.9 4.7 1.9 7.1 2.8 1.6.6 3.2 1.3 4.8 1.9h.1c.2.1.5 0 .7-.1.3-.1.7-.3.9-.5.2-.1 1-.9.5-1.1-.7-.3-1.5-.6-2.2-.9-1.6-.6-3.3-1.3-4.9-1.9-1.6-.6-3.2-1.3-4.9-1.9-.7-.3-1.5-.6-2.2-.9-1.8-.7-3.8-.4-5.6.4l-1.2.6c-1.6.8-3.1 1.6-4.7 2.3-.4.2-.9.4-1.3.6-1.4.7-2.7 1.9-3.3 3.4-.6 1.3-.5 2.8 0 4.1.6 1.4 1.9 2.4 3.4 2.7 1.2.2 2.3 0 3.4-.4.6-.3 1.3-.5 1.9-.8 1.5-.6 3-1.3 4.5-1.9.1 0 .2-.1.3-.1.3-.1.6-.3.9-.5.2-.2.5-.4.6-.6.1-.2.1-.3-.1-.4-.3-.3-.6-.2-.8-.1z" transform="scale(5.83333)"/><path class="st4" d="M14 44.9H18.9c-.2 0-.5-.1-.7-.1.9.7 1.9 1.4 2.8 2.1 1.6 1.2 3.2 2.4 4.8 3.7l1.5 1.2c.1.1.2.1.2.2.3.2.5.5.8.6.4.2.8.3 1.2.3.9.1 1.9 0 2.7-.2.4-.1.9-.2 1.3-.5.1-.1.2-.2.3-.2.3-.3.7-.6 1-.8 1.4-1.1 2.7-2.2 4.1-3.4 1.6-1.3 3.2-2.6 4.7-3.9 1-.8 2-1.6 2.9-2.4.6-.5 1.1-1.1 1.1-2 0-.6-.1-1.3-.5-1.8l-.3-.3c-1.1-1.3-2.3-2.5-3.4-3.8-1.1-1.2-2.2-2.5-3.3-3.7l-.2-.2c-.1-.1-.3-.1-.4-.1h-1c-.3 0-.6 0-1 .1l-.4.1c1 1.2 2.1 2.3 3.1 3.5 1.3 1.4 2.6 2.9 3.9 4.3.9 1 .9 2.6-.1 3.6-.5.5-1.1.9-1.6 1.3-1.2 1-2.3 1.9-3.5 2.9-1.4 1.1-2.7 2.2-4.1 3.4-1.1.9-2.1 1.7-3.2 2.6-.3.2-.5.4-.8.7l-.1.1c-.1.1-.2.2-.3.2-.1 0-.1.1-.2.1h-.1s-.2.1-.1 0c0 0-.2.1-.1 0h.2c.4 0 .7-.1 1.1-.1.2 0 .1 0 0 0 .2 0 .1 0 0 0h-.1-.1c-.3-.1-.6-.2-.8-.4h.1c-.2-.1-.3-.3-.5-.4-.1-.1-.2-.2-.3-.2l-1.2-.9c-1.2-.9-2.5-1.9-3.7-2.8-1.1-.8-2.2-1.7-3.3-2.5-.2-.2-.5-.4-.7-.6-.2-.2-.5-.1-.8-.1H15.1 15c-.6 0-1.3 0-1.9.2H13c-.1 0-.1.1 0 .1h.1c.5.1.7.1.9.1zm18.9-22.2c-.6-.5-1.2-1-1.9-1.3-1.5-.7-3.2-.8-4.7-.5-1 .2-2 .6-2.9 1l-3.6 1.5c-1.3.6-2.6 1.1-3.9 1.7l-2.1.9c-.1 0-.4.2-.4.3 0 .2.3.3.4.3.6.1 1.4.1 1.9-.2.6-.2 1.1-.5 1.7-.7 1.2-.5 2.4-1 3.7-1.6 1.2-.5 2.5-1.1 3.7-1.6.6-.3 1.2-.5 1.9-.8 0 0 .1 0 .1-.1h.1c.1-.1-.2.1-.1 0 .1 0 .1 0 .2-.1.1 0 .3-.1.1 0h.2.2.5c.1 0 .2 0 .2.1.1 0 .1 0 .2.1h0l.2.1c.1 0 .2.1.3.1.1.1.2.1.4.2.1 0 .1.1.2.1 0 0 .1 0 .1.1.1.1-.1 0 0 0 .3.2.5.4.7.6.1.1.2.1.2.2.2.1.4.2.7.2h1.1c.3 0 .6-.1.8-.3-.2 0 0-.2-.2-.3z" transform="scale(5.83333)"/><path class="st4" d="M2.9 48.2h8.7c.8-.1 1.6-.4 2.3-.9 1.2-.9 2.1-2.2 2.1-3.8v-2.4V36v-5.4-3.3c0-.8-.2-1.5-.5-2.2-.7-1.4-2.1-2.3-3.6-2.4H2.8c-.3 0-.7.2-1 .5-.2.2-.4.6-.4.9 0 .3.1.6.4.8.3.2.6.2.9.2H11c.2 0 .3 0 .5.1.1 0 .2.1-.1 0h.1c.1 0 .2.1.2.1.2.1.3.1.5.2-.1-.1-.2-.1-.3-.2.3.2.6.4.8.7-.1-.1-.1-.2-.2-.2l.6.9c0-.1-.1-.2-.1-.3.1.3.2.7.3 1.1v-.3V44c0 .1-.1.2 0-.1v.2c0 .1-.1.2-.1.3 0 .1-.2.4 0 0-.1.1-.1.2-.2.3 0 .1-.1.2-.2.2-.1.2.2-.3.1-.1l-.1.1-.2.2-.1.1c.4-.3.2-.1.1-.1-.1.1-.2.1-.3.2 0 0-.1 0-.1.1-.2.1.4-.2.1-.1-.1 0-.2.1-.3.1-.1 0-.5.1 0 0-.2 0-.4.1-.6.1h.1-8.3-.1c-.3 0-.7.2-1 .5-.2.2-.4.6-.4.9 0 .3.1.6.4.8.2.5.5.5.8.5zm64.6-2.3h-8.1-.4-.1c-.2 0 .3.1.1 0-.1 0-.2-.1-.3-.1h-.1c-.2-.1.1 0 .1.1-.1-.1-.2-.1-.2-.1-.1 0-.2-.1-.2-.1.4.3.1.1 0 0l-.2-.2c-.1-.1.2.3.1.1l-.1-.1-.2-.2s0-.1-.1-.1c.2.3.1.2.1.1s-.1-.2-.1-.3c0-.1-.1-.2-.1-.3-.1-.2 0 .1 0 .1v-.2c-.1-.2-.1-.4-.1-.6v-1.4-4.1-4.9-4.1-1.8c0-.3.1-.6.2-.8 0 .1-.1.2-.1.2.1-.4.4-.8.6-1.1-.2 0-.2 0-.3.1.3-.3.6-.6 1-.8-.1 0-.2.1-.2.1.3-.1.5-.3.8-.3.2-.1-.3 0 0 0h8.9c.6 0 .9-.7.7-1.2-.3-.6-1-1-1.7-1h-8-.1.3-.9c-.8.1-1.5.4-2.1.8-.5.4-1 1-1.3 1.6-.2.5-.4 1-.4 1.5V43c0 .8.1 1.5.5 2.2.8 1.5 2.4 2.6 4.1 2.8h9c.6 0 .9-.7.7-1.2-.5-.6-1.1-.9-1.8-.9z" transform="scale(5.83333)"/><path class="st4" d="M-.4 35.5c0 3.6.6 7.3 1.7 10.7 1.1 3.4 2.7 6.5 4.8 9.4 2.1 2.9 4.5 5.4 7.4 7.6 2.8 2.2 6 3.9 9.3 5.1 3.6 1.3 7.5 2 11.3 2.2 3.8.1 7.7-.3 11.4-1.3 3.5-1 6.9-2.5 9.9-4.5 3-1.9 5.6-4.3 7.9-7 2.2-2.7 4.1-5.7 5.4-9 1.4-3.4 2.2-6.9 2.5-10.5.3-3.7 0-7.4-.9-10.9-.8-3.5-2.2-6.8-4.1-9.8-1.8-3-4.1-5.7-6.8-8.1-2.7-2.3-5.7-4.3-8.9-5.7-3.4-1.5-7.1-2.5-10.8-2.9-3.8-.5-7.8-.3-11.7.4-3.6.7-7.1 2-10.3 3.8-3.1 1.7-5.9 3.9-8.4 6.4-2.4 2.5-4.5 5.4-6 8.5C1.7 23.1.6 26.6 0 30.1c-.2 1.8-.4 3.6-.4 5.4 0 .5 1.1.5 1.4.5.3 0 1.4 0 1.4-.5 0-3.6.6-7.2 1.7-10.6 1-3.3 2.6-6.3 4.6-9.1 2-2.8 4.3-5.3 7-7.3 1.4-1 2.8-2 4.3-2.8 1.5-.8 2.9-1.5 4.6-2.1.4-.1.8-.3 1.2-.4.1-.2.3-.2.5-.3.1 0 .2-.1.3-.1h.1c.2-.1-.1 0 0 0 .8-.2 1.7-.4 2.5-.6.4-.1.9-.2 1.3-.2.2 0-.2 0 0 0h.3c.2 0 .5-.1.7-.1.4-.1.9-.1 1.3-.1H37c.2 0 .5 0 .7.1.4 0 .9.1 1.3.1.4.1.9.1 1.3.2h.1c.4-.2.6-.2.7-.2.2 0 .4.1.6.1.9.2 1.7.4 2.6.6.1 0 .2.1.3.1-.2-.1 0 0 .1 0 .2.1.4.1.7.2.4.1.8.3 1.2.4.8.3 1.6.6 2.4 1l.6.3c.1 0 .3.1.2.1h.1c0 .2.1.2.1.3.4.2.8.4 1.1.6.8.4 1.5.9 2.2 1.4 2.8 1.9 5.3 4.1 7.5 6.8s4 5.6 5.3 8.8c1.3 3.2 2.1 6.7 2.4 10.2.3 3.6 0 7.3-.9 10.8-.8 3.3-2.1 6.6-3.9 9.5-1.8 2.9-4 5.6-6.5 7.9-1.2 1.1-2.6 2.1-4 3-.7.5-1.5.9-2.2 1.3-.4.2-.7.4-1.1.6l-1 .5c-.8.4-1.6.7-2.4 1-.4.1-.8.3-1.2.4-.2.1-.4.1-.6.2-.1 0-.2.1-.3.1-.1 0-.1 0-.2.1.1 0 .1 0 0 0-.9.2-1.7.4-2.6.6-.4.1-.9.2-1.3.2-.2 0 .2 0 0 0h-.4c-.2 0-.5.1-.7.1-.4.1-.9.1-1.3.1h-4.3c-.2 0-.4 0-.7-.1-.5 0-.9-.1-1.4-.1-.4-.1-.9-.1-1.3-.2h-.1c-.1 0-.2 0-.3-.1-.2 0-.4-.1-.6-.1-.9-.2-1.7-.4-2.6-.6-.1 0-.4-.1-.1 0-.1 0-.2-.1-.3-.1-.2-.1-.4-.1-.7-.2-.4-.1-.8-.3-1.3-.4-.8-.3-1.6-.6-2.4-1l-.6-.3s-.2-.1-.1-.1c-.1-.1-.2-.1-.3-.2l-1.2-.6c-2.9-1.7-5.6-3.8-8-6.2-2.4-2.5-4.3-5.3-5.9-8.4-1.5-3.1-2.6-6.5-3.1-9.9-.3-1.7-.4-3.5-.4-5.3.2-.4-.9-.4-1.2-.4-.3 0-1.4 0-1.4.5z" transform="scale(5.83333)"/></svg>