<svg xmlns="http://www.w3.org/2000/svg" height="57px" width="261px" version="1.1" xmlns:xlink="http://www.w3.org/1999/xlink" viewBox="0 0 261 57" class="c-logo-full">
 <defs>
  <polygon id="path-1" points="0.2193 0.16286 181.94 0.16286 181.94 56.956 0.2193 56.956"/>
  <polygon id="path-3" points="0.59925 0.63786 132.91 0.63786 132.91 9.9571 0.59925 9.9571"/>
 </defs>
 <g id="Full-Screens" fill-rule="evenodd" fill="none">
  <g id="Program-List-Page" transform="translate(-123 -1424)">
   <g id="Logo_Left_CMYK" transform="translate(123 1424)">
    <path id="Fill-1" fill="#0A0B09" d="m88.369 24.426v12.503c0 2.686-1.796 3.69-4.05 3.69-2.324 0-3.693-1.353-3.693-3.69v-12.929l-2.626 0.426v11.137c0 5.21 1.473 7.437 6.536 7.437 4.642 0 6.464-1.858 6.464-7.437v-11.563l-2.631 0.426"/>
    <polyline id="Fill-2" points="103.54 42.574 103.54 30.289 114.95 43 115 43 115 24.426 112.46 24.843 112.46 36.705 101.06 24 101 24 101 42.898 103.54 42.574" fill="#0A0B09"/>
    <polyline id="Fill-3" points="128 42.78 128 24 125 24.431 125 43 128 42.78" fill="#0A0B09"/>
    <polyline id="Fill-4" points="146.46 24 141.93 36.591 141.87 36.591 137.52 24 135 24.426 141.87 43 141.93 43 149 24.426 146.46 24" fill="#0A0B09"/>
    <polyline id="Fill-5" points="167.25 42 168 39.645 159.64 39.645 159.64 33.813 165.85 33.813 165.85 31.448 159.64 31.448 159.64 26.352 167.42 26.352 166.85 24 157 24 157 42 167.25 42" fill="#0A0B09"/>
    <path id="Fill-6" fill="#0A0B09" d="m179.62 26.298h1.87c2.03 0 3.43 0.956 3.43 3.033 0 1.92-1.64 3.155-3.43 3.155h-1.87v-6.188zm0 15.289v-8.535h0.06l6.38 8.948 2.94-0.715-5.53-7.366c2.51-0.544 4.07-1.973 4.07-4.588 0-4.007-3.3-5.331-6.02-5.331h-4.52v17.902l2.62-0.315z"/>
    <path id="Fill-7" fill="#0A0B09" d="m197 40.059c1.6 1.756 3.08 2.941 5.51 2.941 3.07 0 5.49-2.298 5.49-5.531 0-6.271-8.1-4.571-8.1-8.308 0-1.718 1.16-2.78 2.78-2.78 1.48 0 2.45 0.983 3.42 2.005l1.7-1.739c-1.17-1.592-3.03-2.647-4.98-2.647-3.21 0-5.45 1.96-5.45 5.161 0 6.375 8.11 4.072 8.11 8.274 0 2.259-1.38 3.184-3.24 3.184-1.41 0-2.65-0.984-3.38-2.145l-1.86 1.585"/>
    <polyline id="Fill-8" points="220 42.78 220 24 217 24.431 217 43 220 42.78" fill="#0A0B09"/>
    <polyline id="Fill-9" points="232.9 26.31 232.9 42 235.59 41.683 235.59 26.31 240 26.31 240 24 228.86 24 228 26.31 232.9 26.31" fill="#0A0B09"/>
    <polyline id="Fill-10" points="257.52 24 253.75 32.83 248.53 24 246 24.74 252.53 35.591 249.39 42.45 251.91 43 260 24.762 257.52 24" fill="#0A0B09"/>
    <path id="Fill-11" fill="#0A0B09" d="m89.021 0.44348c-1.046-0.25609-2.078-0.44348-3.132-0.44348-4.709 0-8.889 4.8976-8.889 9.4981 0 5.0489 4.022 9.5019 9.294 9.5019 1.115 0 2.18-0.321 3.218-0.669l0.488-2.828c-1.095 0.659-2.368 1.113-3.653 1.113-3.935 0-6.69-3.572-6.69-7.2201 0-3.624 2.993-7.0083 6.802-7.0083 1.173 0 2.148 0.2046 3.124 0.8675l-0.562-2.8116"/>
    <path id="Fill-12" fill="#0A0B09" d="m99.583 9.4981c0-3.7912 3.117-7.1105 6.917-7.1105s6.91 3.3193 6.91 7.1105c0 3.7779-3.11 7.1179-6.91 7.1179s-6.917-3.34-6.917-7.1179zm-2.583 0c0 5.3419 4.26 9.5019 9.5 9.5019 5.23 0 9.5-4.16 9.5-9.5019 0-5.3418-4.27-9.4981-9.5-9.4981-5.24 0-9.5 4.1563-9.5 9.4981z"/>
    <polyline id="Fill-13" points="126.53 18.57 126.53 6.3012 137.96 19 138 19 138 0.41958 135.46 0.84663 135.46 12.703 124.04 0 124 0 124 18.884 126.53 18.57" fill="#0A0B09"/>
    <path id="Fill-14" fill="#0A0B09" d="m157.02 0.44348c-1.03-0.25609-2.07-0.44348-3.13-0.44348-4.7 0-8.89 4.8976-8.89 9.4981 0 5.0489 4.03 9.5019 9.3 9.5019 1.12 0 2.18-0.321 3.21-0.669l0.49-2.828c-1.09 0.659-2.36 1.113-3.64 1.113-3.95 0-6.7-3.572-6.7-7.2201 0-3.624 2.99-7.0083 6.8-7.0083 1.18 0 2.15 0.2046 3.14 0.8675l-0.58-2.8116"/>
    <path id="Fill-15" fill="#0A0B09" d="m168.59 9.4981c0-3.7912 3.11-7.1105 6.91-7.1105 3.79 0 6.91 3.3193 6.91 7.1105 0 3.7779-3.12 7.1179-6.91 7.1179-3.8 0-6.91-3.34-6.91-7.1179zm-2.59 0c0 5.3419 4.28 9.5019 9.5 9.5019s9.5-4.16 9.5-9.5019c0-5.3418-4.28-9.4981-9.5-9.4981s-9.5 4.1563-9.5 9.4981z"/>
    <path id="Fill-16" fill="#0A0B09" d="m194.63 3.3101h1.87c2.03 0 3.42 0.9526 3.42 3.024 0 1.9188-1.63 3.1535-3.42 3.1535h-1.87v-6.1775zm0 15.273v-8.53h0.05l6.38 8.947 2.94-0.717-5.52-7.36c2.51-0.532 4.06-1.9685 4.06-4.5889 0-4.004-3.29-5.3341-6.02-5.3341h-4.52v17.888l2.63-0.305z"/>
    <path id="Fill-17" fill="#0A0B09" d="m213.66 3.3649h1.98c3.13 0 6.7 2.527 6.7 6.6381 0 4.113-3.57 6.643-6.7 6.643h-1.98v-13.281zm-2.66 15.635h4.64c5.62 0 9.36-4.349 9.36-8.997 0-4.6465-3.74-9.003-9.36-9.003h-4.64v18z"/>
    <polyline id="Fill-18" points="235 18.779 235 0 232 0.4243 232 19 235 18.779" fill="#0A0B09"/>
    <g id="Group-22" fill="#0A0B09" transform="translate(78)">
     <mask id="mask-2" fill="white">
      <use xlink:href="#path-1"/>
     </mask>
     <path id="Fill-19" mask="url(#mask-2)" d="m170.05 10.448l2.55-5.1685 2.59 5.1685h-5.14zm-4.16 8.554l3.07-6.194h7.3l3.08 6.194 2.6-0.528-9.22-18.311-0.06-0.00014-9.2 18.311 2.43 0.528z"/>
     <polyline id="Fill-21" points="1.5231 56.791 1.5231 50.617 7.4269 57 7.4471 57 7.4471 47.667 6.1335 47.884 6.1335 53.837 0.24018 47.457 0.2193 47.457 0.2193 56.952 1.5231 56.791" mask="url(#mask-2)"/>
    </g>
    <polyline id="Fill-23" points="109.66 57 110 55.821 106.19 55.821 106.19 52.903 109.02 52.903 109.02 51.732 106.19 51.732 106.19 49.183 109.73 49.183 109.47 48 105 48 105 57 109.66 57" fill="#0A0B09"/>
    <g id="Group-31" fill="#0A0B09" transform="translate(128 47)">
     <mask id="mask-4" fill="white">
      <use xlink:href="#path-3"/>
     </mask>
     <path id="Fill-24" mask="url(#mask-4)" d="m1.9083 2.0979h1.203c0.9676 0 1.4563 0.4185 1.4563 1.2185 0 0.9065-0.6321 1.4557-1.4563 1.4557h-1.203v-2.6742zm0 3.7264h1.203c1.0797 0 1.7813 0.4378 1.7813 1.5357 0 0.9807-0.7218 1.34-1.7813 1.34h-1.203v-2.8757zm-1.309 3.9736h2.684c1.5788 0 2.9282-0.6936 2.9282-2.4379 0-0.9386-0.5626-1.8957-1.5415-2.1643 0.7144-0.4443 1.2172-1.0378 1.2172-1.8793 0-1.3157-1.1245-2.3221-2.512-2.3221l-2.7758-0.00001-0.00005 8.8036z"/>
     <path id="Fill-26" mask="url(#mask-4)" d="m26.137 2.1514h0.933c1.027 0 1.73 0.47 1.73 1.5093 0 0.9672-0.824 1.5814-1.73 1.5814h-0.933v-3.0907zm0 7.6465v-4.275h0.024l3.216 4.4771 1.471-0.3593-2.776-3.6793c1.261-0.275 2.034-0.9907 2.034-2.3007 0-2-1.648-2.6664-3.022-2.6664l-2.262-0.00001v8.9593l1.315-0.1557z"/>
     <path id="Fill-27" mask="url(#mask-4)" d="m51.361 5.8243l1.297-2.5293 1.318 2.5293h-2.615zm-2.105 4.1757l1.548-3.0293h3.706l1.579 3.0293 1.316-0.2614-4.69-8.9472-0.023 0.00003-4.67 8.9472 1.234 0.2614z"/>
     <path id="Fill-28" mask="url(#mask-4)" d="m75.118 8.5821c0.838 0.8458 1.601 1.4179 2.862 1.4179 1.593 0 2.855-1.1171 2.855-2.6721 0-3.0536-4.208-2.2258-4.208-4.0329 0-0.8371 0.6-1.3529 1.445-1.3529 0.759 0 1.271 0.4736 1.774 0.98l0.886-0.85c-0.609-0.7707-1.569-1.2807-2.599-1.2807-1.654 0.00003-2.827 0.935-2.827 2.5036 0 3.0907 4.219 1.9664 4.219 4.0129 0 1.0914-0.714 1.5392-1.681 1.5392-0.74 0-1.382-0.4814-1.761-1.0328l-0.965 0.7678"/>
     <polyline id="Fill-29" points="101.05 9.7979 101.05 5.3079 101.06 5.3079 104.66 10 105.98 9.5236 102.58 5.2879 106.07 1.1771 104.84 0.63786 101.06 5.2421 101.05 5.2421 101.05 0.79143 99.72 0.99429 99.72 10 101.05 9.7979" mask="url(#mask-4)"/>
     <path id="Fill-30" mask="url(#mask-4)" d="m126.88 5.8243l1.29-2.5293 1.32 2.5293h-2.61zm-2.11 4.1757l1.55-3.0293h3.71l1.57 3.0293 1.31-0.2614-4.68-8.9472-0.03 0.00003-4.68 8.9472 1.25 0.2614z"/>
    </g>
    <polyline id="Fill-32" points="30.15 0 29 13 35 13 33.727 0 30.15 0" fill="#15233C"/>
    <polyline id="Fill-33" points="23.153 0 22 13 28 13 26.73 0 23.153 0" fill="#15233C"/>
    <polyline id="Fill-34" points="13 22 0 23.267 0 26.847 13 28 13 22" fill="#15233C"/>
    <polyline id="Fill-35" points="13 29 0 30.271 0 33.844 13 35 13 29" fill="#15233C"/>
    <polyline id="Fill-36" points="15.129 0 13.914 13.912 0 15.13 0 18.838 13.109 20 19.987 20 19.987 19.982 20 19.982 20 13.109 18.838 0.019817 15.129 0" fill="#15233C"/>
    <polyline id="Fill-37" points="44 35 57 33.737 57 30.153 44 29 44 35" fill="#15233C"/>
    <polyline id="Fill-38" points="44 28 57 26.735 57 23.155 44 22 44 28" fill="#15233C"/>
    <polyline id="Fill-39" points="43.088 13.908 41.862 0.0095339 38.155 0 37 13.108 37 19.977 37.017 19.977 37.017 20 43.89 20 56.932 18.839 57 15.128 43.088 13.908" fill="#15233C"/>
    <polyline id="Fill-40" points="23.272 57 26.845 57 28 44 22 44 23.272 57" fill="#15233C"/>
    <polyline id="Fill-41" points="30.267 57 33.847 57 35 44 29 44 30.267 57" fill="#15233C"/>
    <polyline id="Fill-42" points="56.922 38.158 44.739 37.074 43.956 37 37 37 37 43.971 38.159 57 41.855 57 42.949 44.478 43.084 43.1 57 41.869 56.922 38.158" fill="#15233C"/>
    <polyline id="Fill-43" points="13.081 37 13.037 37 12.556 37.04 0 38.161 0 41.839 12.22 42.932 13.884 43.087 15.104 57 18.837 56.986 20 43.879 20 37 13.081 37" fill="#15233C"/>
   </g>
  </g>
 </g>
</svg>