<svg xmlns="http://www.w3.org/2000/svg" version="1.1" xmlns:xlink="http://www.w3.org/1999/xlink" xmlns:svgjs="http://svgjs.com/svgjs" viewBox="0 0 16 16" height="16" width="16"><g transform="matrix(0.6666666666666666,0,0,0.6666666666666666,0,0)"><path d="M8.5,9.51c-0.552,0-1,0.448-1,1V23c0,0.552,0.448,1,1,1s1-0.448,1-1V10.51C9.5,9.958,9.052,9.51,8.5,9.51z M12,9.51 c-0.552,0-1,0.448-1,1V23c0,0.552,0.448,1,1,1s1-0.448,1-1V10.51C13,9.958,12.552,9.51,12,9.51z M15.5,9.51c-0.552,0-1,0.448-1,1 V23c0,0.552,0.448,1,1,1c0.552,0,1-0.448,1-1V10.51C16.5,9.958,16.052,9.51,15.5,9.51z M19.5,0h-15 C2.025-0.01,0.01,1.988-0.001,4.463c-0.006,1.396,0.639,2.715,1.745,3.568c0.626,0.403,1.355,0.62,2.1,0.625 C5.242,8.76,6.461,7.712,6.565,6.313c0.004-0.056,0.006-0.111,0.007-0.167C6.565,5.493,6.118,4.927,5.484,4.77 C5.062,4.681,4.645,4.939,4.536,5.356C4.37,5.736,3.928,5.91,3.548,5.744C3.168,5.578,2.994,5.136,3.16,4.756 C3.549,3.681,4.672,3.059,5.789,3.3c1.33,0.303,2.277,1.482,2.287,2.846c0,0.408-0.064,0.813-0.19,1.2 c-0.085,0.263,0.059,0.545,0.322,0.63C8.257,7.992,8.309,8,8.361,8h7.278c0.276,0,0.5-0.224,0.5-0.5 c0-0.053-0.008-0.105-0.025-0.155c-0.126-0.387-0.19-0.792-0.19-1.2c0.01-1.364,0.957-2.542,2.287-2.845 c1.118-0.24,2.242,0.384,2.629,1.46c0.166,0.38-0.008,0.822-0.388,0.988c-0.38,0.166-0.822-0.008-0.988-0.388l0,0 c-0.109-0.417-0.526-0.675-0.948-0.586c-0.635,0.156-1.085,0.722-1.092,1.376c0.012,1.402,1.159,2.529,2.561,2.517 c0.056,0,0.112-0.003,0.167-0.007c0.745-0.005,1.474-0.221,2.1-0.625c1.962-1.509,2.33-4.323,0.821-6.285 C22.22,0.641,20.899-0.006,19.5,0z" stroke="none" fill="#c8c8c8" stroke-width="0" stroke-linecap="round" stroke-linejoin="round"></path></g></svg>