<?xml version="1.0" encoding="UTF-8"?>
<svg width="16px" height="24px" viewBox="0 0 16 24" version="1.1" xmlns="http://www.w3.org/2000/svg" xmlns:xlink="http://www.w3.org/1999/xlink">
    <g id="Page-1" stroke="none" stroke-width="1" fill="none" fill-rule="evenodd">
        <g id="streamline-icon-pin@24x24" fill="#C8C8C8" fill-rule="nonzero">
            <path d="M8,0 C3.584,0.005 0.005,3.584 0,8 C0,11.51 5,20.025 7.148,23.524 C7.33,23.82 7.653,24.0000164 8,24.0000164 C8.348,24.002 8.671,23.821 8.852,23.523 C11,20.026 16,11.514 16,8 C15.995,3.584 12.416,0.005 8,0 Z M8,11.5 C6.067,11.5 4.5,9.933 4.5,8 C4.5,6.067 6.067,4.5 8,4.5 C9.933,4.5 11.5,6.067 11.5,8 C11.5,9.933 9.933,11.5 8,11.5 Z"></path>
        </g>
    </g>
</svg>